REM DIRINDEX 1\2,1\3\7,1\3\8,1\4\9,1\4\10,1\4\11,1\5\12,1\5\13,1\5\14,1\6\15,1\6\16,1\6\17
REM DIRNAME "folder01","folder02","folder03","folder04","folder05","folder06","folder07","folder08","folder09","folder10","folder11","folder12","folder13","folder14","folder15","folder16","folder17"
TITLE ""
FILE "2Q_j_1449-1462.mp3" MP3
  TRACK 01 AUDIO
    TITLE "0:"
    INDEX 01 00:00:00
  TRACK 02 AUDIO
    TITLE "9:cjc174_0564"
    INDEX 01 00:00:22
  TRACK 03 AUDIO
    TITLE "0:"
    INDEX 01 00:02:07
  TRACK 04 AUDIO
    TITLE "10:cjc174_0565"
    INDEX 01 00:02:60
  TRACK 05 AUDIO
    TITLE "0:"
    INDEX 01 00:04:04
  TRACK 06 AUDIO
    TITLE "11:cjc174_0566"
    INDEX 01 00:04:49
  TRACK 07 AUDIO
    TITLE "0:"
    INDEX 01 00:08:02
  TRACK 08 AUDIO
    TITLE "9:cjc174_0567"
    INDEX 01 00:08:53
  TRACK 09 AUDIO
    TITLE "0:"
    INDEX 01 00:10:03
  TRACK 10 AUDIO
    TITLE "10:cjc174_0568"
    INDEX 01 00:10:50
  TRACK 11 AUDIO
    TITLE "0:"
    INDEX 01 00:12:51
  TRACK 12 AUDIO
    TITLE "11:cjc174_0569"
    INDEX 01 00:13:19
  TRACK 13 AUDIO
    TITLE "0:"
    INDEX 01 00:18:02
  TRACK 14 AUDIO
    TITLE "9:cjc174_0570"
    INDEX 01 00:18:49
  TRACK 15 AUDIO
    TITLE "0:"
    INDEX 01 00:20:68
  TRACK 16 AUDIO
    TITLE "10:cjc174_0571"
    INDEX 01 00:21:44
  TRACK 17 AUDIO
    TITLE "0:"
    INDEX 01 00:23:37
  TRACK 18 AUDIO
    TITLE "11:cjc174_0572"
    INDEX 01 00:24:09
  TRACK 19 AUDIO
    TITLE "0:"
    INDEX 01 00:28:73
  TRACK 20 AUDIO
    TITLE "9:cjc174_0573"
    INDEX 01 00:29:47
  TRACK 21 AUDIO
    TITLE "0:"
    INDEX 01 00:31:23
  TRACK 22 AUDIO
    TITLE "10:cjc174_0574"
    INDEX 01 00:31:68
  TRACK 23 AUDIO
    TITLE "0:"
    INDEX 01 00:33:67
  TRACK 24 AUDIO
    TITLE "11:cjc174_0575"
    INDEX 01 00:34:37
  TRACK 25 AUDIO
    TITLE "0:"
    INDEX 01 00:40:43
  TRACK 26 AUDIO
    TITLE "9:cjc174_0576"
    INDEX 01 00:41:15
  TRACK 27 AUDIO
    TITLE "0:"
    INDEX 01 00:42:32
  TRACK 28 AUDIO
    TITLE "10:cjc174_0577"
    INDEX 01 00:43:02
  TRACK 29 AUDIO
    TITLE "0:"
    INDEX 01 00:46:50
  TRACK 30 AUDIO
    TITLE "11:cjc174_0578"
    INDEX 01 00:47:18
  TRACK 31 AUDIO
    TITLE "0:"
    INDEX 01 00:52:01
  TRACK 32 AUDIO
    TITLE "9:cjc174_0579"
    INDEX 01 00:52:48
  TRACK 33 AUDIO
    TITLE "0:"
    INDEX 01 00:53:69
  TRACK 34 AUDIO
    TITLE "10:cjc174_0580"
    INDEX 01 00:54:41
  TRACK 35 AUDIO
    TITLE "0:"
    INDEX 01 00:57:36
  TRACK 36 AUDIO
    TITLE "11:cjc174_0581"
    INDEX 01 00:58:06
  TRACK 37 AUDIO
    TITLE "0:"
    INDEX 01 01:00:56
  TRACK 38 AUDIO
    TITLE "9:cjc174_0582"
    INDEX 01 01:01:28
  TRACK 39 AUDIO
    TITLE "0:"
    INDEX 01 01:02:70
  TRACK 40 AUDIO
    TITLE "10:cjc174_0583"
    INDEX 01 01:03:42
  TRACK 41 AUDIO
    TITLE "0:"
    INDEX 01 01:07:16
  TRACK 42 AUDIO
    TITLE "11:cjc174_0584"
    INDEX 01 01:07:64
  TRACK 43 AUDIO
    TITLE "0:"
    INDEX 01 01:11:71
  TRACK 44 AUDIO
    TITLE "9:cjc174_0585"
    INDEX 01 01:12:41
  TRACK 45 AUDIO
    TITLE "0:"
    INDEX 01 01:13:56
  TRACK 46 AUDIO
    TITLE "10:cjc174_0586"
    INDEX 01 01:14:28
  TRACK 47 AUDIO
    TITLE "0:"
    INDEX 01 01:16:72
  TRACK 48 AUDIO
    TITLE "11:cjc174_0587"
    INDEX 01 01:17:42
  TRACK 49 AUDIO
    TITLE "0:"
    INDEX 01 01:21:09
  TRACK 50 AUDIO
    TITLE "9:cjc174_0588"
    INDEX 01 01:21:60
  TRACK 51 AUDIO
    TITLE "0:"
    INDEX 01 01:22:75
  TRACK 52 AUDIO
    TITLE "10:cjc174_0589"
    INDEX 01 01:23:45
  TRACK 53 AUDIO
    TITLE "0:"
    INDEX 01 01:25:54
  TRACK 54 AUDIO
    TITLE "11:cjc174_0590"
    INDEX 01 01:26:22
  TRACK 55 AUDIO
    TITLE "0:"
    INDEX 01 01:30:45
  TRACK 56 AUDIO
    TITLE "9:cjc174_0591"
    INDEX 01 01:31:15
  TRACK 57 AUDIO
    TITLE "0:"
    INDEX 01 01:32:38
  TRACK 58 AUDIO
    TITLE "10:cjc174_0592"
    INDEX 01 01:33:12
  TRACK 59 AUDIO
    TITLE "0:"
    INDEX 01 01:35:27
  TRACK 60 AUDIO
    TITLE "11:cjc174_0593"
    INDEX 01 01:35:70
  TRACK 61 AUDIO
    TITLE "0:"
    INDEX 01 01:39:46
  TRACK 62 AUDIO
    TITLE "9:cjc174_0594"
    INDEX 01 01:40:18
  TRACK 63 AUDIO
    TITLE "0:"
    INDEX 01 01:42:21
  TRACK 64 AUDIO
    TITLE "10:cjc174_0595"
    INDEX 01 01:42:66
  TRACK 65 AUDIO
    TITLE "0:"
    INDEX 01 01:44:59
  TRACK 66 AUDIO
    TITLE "11:cjc174_0596"
    INDEX 01 01:45:29
  TRACK 67 AUDIO
    TITLE "0:"
    INDEX 01 01:48:23
  TRACK 68 AUDIO
    TITLE "9:cjc174_0597"
    INDEX 01 01:49:03
  TRACK 69 AUDIO
    TITLE "0:"
    INDEX 01 01:50:16
  TRACK 70 AUDIO
    TITLE "10:cjc174_0598"
    INDEX 01 01:50:65
  TRACK 71 AUDIO
    TITLE "0:"
    INDEX 01 01:52:01
  TRACK 72 AUDIO
    TITLE "11:cjc174_0599"
    INDEX 01 01:52:49
  TRACK 73 AUDIO
    TITLE "0:"
    INDEX 01 01:55:27
  TRACK 74 AUDIO
    TITLE "9:cjc174_0600"
    INDEX 01 01:56:03
  TRACK 75 AUDIO
    TITLE "0:"
    INDEX 01 01:57:40
  TRACK 76 AUDIO
    TITLE "10:cjc174_0601"
    INDEX 01 01:58:12
  TRACK 77 AUDIO
    TITLE "0:"
    INDEX 01 02:00:21
  TRACK 78 AUDIO
    TITLE "11:cjc174_0602"
    INDEX 01 02:00:66
  TRACK 79 AUDIO
    TITLE "0:"
    INDEX 01 02:05:67
  TRACK 80 AUDIO
    TITLE "9:cjc174_0603"
    INDEX 01 02:06:39
  TRACK 81 AUDIO
    TITLE "0:"
    INDEX 01 02:07:60
  TRACK 82 AUDIO
    TITLE "10:cjc174_0604"
    INDEX 01 02:08:30
  TRACK 83 AUDIO
    TITLE "0:"
    INDEX 01 02:10:60
  TRACK 84 AUDIO
    TITLE "11:cjc174_0605"
    INDEX 01 02:11:30
  TRACK 85 AUDIO
    TITLE "0:"
    INDEX 01 02:14:07
